# xmcd
#
# Track frame offsets:
#	150
#	21000
#	41012
#	61870
#	86037
#	109165
#	126700
#	146925
#	167072
#	188715
#
# Disc length: 2799 seconds
#
# Revision: 1
# Processed by: cddbd v1.5.1PL0 Copyright (c) Steve Scherf et al.
# Submitted via: CDex 1.50Beta5
#
DISCID=900aed0a
DTITLE=安部恭弘 - Dear.
DYEAR=1993
DGENRE=
TTITLE0=七つの海より深く
TTITLE1=君に降る雪
TTITLE2=Happiness
TTITLE3=友達
TTITLE4=静かな夜が降る
TTITLE5=誕生日には花を買おう
TTITLE6=あざやかな横顔
TTITLE7=ひそかに愛した
TTITLE8=派
TTITLE9=誰かが見つめてる
EXTD=
EXTT0=
EXTT1=
EXTT2=
EXTT3=
EXTT4=
EXTT5=
EXTT6=
EXTT7=
EXTT8=
EXTT9=
PLAYORDER=
